<?xml version="1.0" encoding="utf-8"?>
<!-- Generator: Adobe Illustrator 25.2.1, SVG Export Plug-In . SVG Version: 6.00 Build 0)  -->
<svg version="1.1" id="Layer_1" xmlns="http://www.w3.org/2000/svg" xmlns:xlink="http://www.w3.org/1999/xlink" x="0px" y="0px"
	 viewBox="0 0 400 400" style="enable-background:new 0 0 400 400;" xml:space="preserve">
<style type="text/css">
	.st0{fill:url(#SVGID_1_);}
	.st1{fill:#FFFFFF;}
</style>
<radialGradient id="SVGID_1_" cx="143.8611" cy="-872.1818" r="371.1297" gradientTransform="matrix(0.9909 0 0 -0.7208 -11.9286 -295.2954)" gradientUnits="userSpaceOnUse">
	<stop  offset="0" style="stop-color:#0098FB"/>
	<stop  offset="0.329" style="stop-color:#A35BDE"/>
	<stop  offset="1" style="stop-color:#F9306D"/>
</radialGradient>
<path class="st0" d="M274.2,315.9c-51.9,12.2-96.5,12.2-148.4,0c-20.3-5.2-43.6-26.2-47.8-44.4c-10.6-47-10.6-95.8,0-142.9
	c4.2-18.2,27.5-39.2,47.8-44.4c51.9-12.2,96.5-12.2,148.4,0c20.3,5.2,43.6,26.2,47.8,44.4c10.6,47,10.6,95.8,0,142.9
	C317.8,289.7,294.6,310.7,274.2,315.9z"/>
<path class="st1" d="M272.8,177.6h-15.3c-0.4,4.1-2.6,8-6.1,10.5c-6.6,4.6-15.7,3-20.4-3.6l-4.9-7h-50l-4.9,7
	c-4.6,6.6-13.8,8.2-20.4,3.6c-3.6-2.6-5.7-6.4-6.1-10.5h-17.5c-4.3,0-7.7,3.4-7.7,7.7s3.4,7.7,7.7,7.7h4.6l21.6,63
	c0.9,2.7,4.1,4.9,7,4.9h79.3c2.8,0,5.9-2.2,7-4.9l21.6-62.9h4.6c4.3,0,7.7-3.4,7.7-7.7C280.5,181,277,177.6,272.8,177.6z
	 M184.4,140.2c2.7,1.9,3.4,5.6,1.4,8.4l-21.7,31c-1.9,2.7-5.6,3.4-8.4,1.5c-2.7-1.9-3.4-5.6-1.4-8.4l21.7-31
	C177.9,139,181.7,138.3,184.4,140.2z M217.7,140.2c-2.7,1.9-3.4,5.6-1.4,8.4l21.7,31c1.9,2.7,5.6,3.4,8.4,1.5
	c2.7-1.9,3.4-5.6,1.4-8.4l-21.7-31C224.2,139,220.4,138.3,217.7,140.2z M176.6,244.5c-2.4,0.9-5.1-0.4-6-2.8l-9.8-26.9
	c-0.9-2.4,0.4-5.1,2.8-6c2.4-0.9,5.1,0.4,5.9,2.8l9.8,26.9C180.3,241,179,243.7,176.6,244.5z M205.7,241c0,2.6-2.1,4.7-4.6,4.7
	c-2.6,0-4.7-2.1-4.7-4.7v-28.6c0-2.6,2.1-4.7,4.7-4.7c2.6,0,4.6,2.1,4.6,4.7V241z M241.3,214.8l-9.8,26.9c-0.9,2.4-3.6,3.7-5.9,2.8
	c-2.4-0.9-3.7-3.6-2.8-5.9l9.8-26.9c0.9-2.4,3.6-3.7,6-2.8C241,209.7,242.2,212.4,241.3,214.8z"/>
</svg>
